<?xml version="1.0" encoding="utf-8" ?>	<!-- Generator: Assembly 2.4 - http://assemblyapp.co -->	<svg version="1.1" xmlns="http://www.w3.org/2000/svg" xmlns:xlink="http://www.w3.org/1999/xlink" width="226.00" height="350.00" viewBox="0 0 226.0 350.0">		<g id="document" transform="scale(0.0854135045845374 0.0854135045845374) translate(1320.184152142937 2048.0)">			<path d="M1211.37,2018.49 L1211.37,-2018.49 L-1211.75,-2018.49 L-1211.75,2018.49 L1211.37,2018.49 Z " fill="#9c9c9c" fill-opacity="1.00" />			<path d="M-1211.75,-1775.62 L1211.37,-1775.62 L1211.37,-2018.49 L-1211.75,-2018.49 L-1211.75,-1775.62 Z " fill="#4d4d4d" fill-opacity="1.00" />			<path d="M-1211.56,2018.49 L1211.56,2018.49 L1211.56,1775.62 L-1211.56,1775.62 L-1211.56,2018.49 Z " fill="#4d4d4d" fill-opacity="1.00" />			<path d="M-174.219,1193.36 L144.972,1193.36 L144.972,859.731 L-174.219,859.731 L-174.219,1193.36 Z M-714.758,-425.053 L-429.251,-425.053 C-423.904,-564.065 -401.983,-670.462 -363.488,-744.244 C-295.052,-876.84 -171.546,-943.137 7.03036,-943.137 C151.388,-943.137 254.844,-904.642 317.4,-827.651 C379.955,-750.66 411.232,-659.768 411.232,-554.975 C411.232,-480.123 389.846,-407.944 347.073,-338.439 C323.548,-298.874 292.538,-260.913 254.042,-224.556 L125.725,-97.8425 C2.7531,22.9903 -76.911,130.189 -113.268,223.754 C-149.625,317.32 -167.803,440.558 -167.803,593.471 L117.705,593.471 C117.705,458.737 132.942,356.884 163.418,287.913 C193.893,218.943 260.458,134.734 363.113,35.2874 C504.263,-101.585 598.095,-205.309 644.61,-275.884 C691.126,-346.459 714.383,-438.42 714.383,-551.767 C714.383,-738.898 651.026,-892.612 524.312,-1012.91 C397.598,-1133.21 228.914,-1193.36 18.2582,-1193.36 C-209.506,-1193.36 -388.617,-1123.05 -519.073,-982.435 C-649.53,-841.819 -714.758,-656.026 -714.758,-425.053 Z " fill="#4d4d4d" fill-opacity="1.00" />		</g>	</svg>