<svg xmlns="http://www.w3.org/2000/svg" xmlns:xlink="http://www.w3.org/1999/xlink" width="350" height="350" version="1.1" viewBox="0 0 350 350"><rect width="350" height="350" x="0" y="0" fill="#865f3e"/><g id="document"><path fill="#000" fill-opacity="1" d="M-1551.89,-105.6 C-1477.83,174.525 -1336.16,432.11 -1142.97,631.739 C-1049.59,731.554 -940.12,815.269 -820.987,882.885 C-763.03,915.083 -701.854,944.062 -640.677,966.6 C-624.578,969.82 -608.479,979.48 -592.38,982.7 L-569.841,992.359 C-560.182,995.579 -550.522,998.799 -544.083,998.799 C-515.104,1008.46 -479.686,1018.12 -450.708,1021.34 C-189.902,1076.07 77.3426,1040.66 280.191,902.204 C383.225,837.808 470.161,744.433 537.777,638.179 C573.195,583.442 602.173,528.705 631.152,467.528 C656.91,409.572 676.229,351.615 685.889,290.438 C708.427,171.305 698.768,45.732 663.35,-66.9616 C644.031,-124.918 618.272,-182.875 582.854,-231.172 C550.656,-282.69 512.018,-327.767 463.721,-369.625 C418.644,-408.263 363.907,-443.681 309.17,-472.659 C257.653,-498.417 199.696,-511.297 141.739,-517.736 C22.6057,-527.396 -102.967,-485.538 -202.782,-405.043 C-254.299,-366.405 -296.156,-311.668 -328.355,-253.711 C-360.553,-195.754 -376.652,-134.578 -379.872,-66.9617 C-379.872,68.2707 -305.816,213.163 -170.584,290.438 C-247.859,271.119 -315.475,229.262 -376.652,168.085 C-434.609,110.128 -476.466,29.6329 -492.565,-57.3022 C-511.884,-141.018 -505.445,-237.612 -476.466,-324.547 C-450.708,-408.263 -405.63,-485.538 -344.454,-553.154 C-283.277,-620.771 -212.441,-678.727 -128.726,-717.365 C-48.2303,-759.223 45.1444,-781.762 138.519,-791.421 C235.114,-797.861 328.489,-788.201 418.644,-756.003 C505.579,-727.025 589.294,-688.387 663.35,-633.65 C737.406,-578.913 808.242,-514.517 866.198,-443.68 C920.935,-369.625 969.233,-289.129 1004.65,-202.194 C1075.49,-28.3238 1098.03,161.646 1075.49,345.175 C1065.83,438.55 1036.85,531.925 1004.65,609.201 C972.452,692.916 933.815,770.191 888.737,847.467 C795.362,998.799 663.35,1137.25 508.798,1240.29 C351.027,1340.1 177.157,1404.5 -6.37275,1427.03 C-183.463,1449.57 -366.993,1433.47 -537.643,1391.62 C-579.501,1381.96 -618.138,1369.08 -666.436,1352.98 L-695.414,1343.32 L-727.612,1330.44 C-746.931,1324 -769.47,1314.34 -788.789,1307.9 C-869.284,1272.48 -943.34,1230.63 -1017.4,1182.33 C-1162.29,1088.95 -1284.64,966.6 -1390.9,834.588 C-1600.18,567.343 -1722.54,245.361 -1751.51,-79.841 C-1783.71,-401.823 -1722.54,-733.464 -1561.55,-1003.93 C-1638.82,-694.827 -1629.16,-388.944 -1551.89,-105.6 Z M1577.78,106.909 C1503.72,-173.216 1362.05,-430.801 1168.86,-630.43 C1075.49,-730.244 966.013,-813.96 846.88,-881.576 C788.923,-913.774 727.746,-942.753 666.57,-965.291 C650.471,-968.511 634.371,-978.171 618.272,-981.39 L595.734,-991.05 C586.074,-994.27 576.415,-997.49 569.975,-997.49 C540.997,-1007.15 505.579,-1016.81 476.6,-1020.03 C215.795,-1074.77 -51.4501,-1039.35 -254.299,-900.895 C-357.333,-836.499 -444.268,-743.124 -511.884,-636.87 C-547.302,-582.133 -576.281,-527.396 -605.259,-466.219 C-631.018,-408.263 -650.337,-350.306 -659.996,-289.129 C-682.535,-169.996 -672.875,-44.423 -637.457,68.2707 C-618.138,126.227 -592.38,184.184 -556.962,232.482 C-524.764,283.999 -486.126,329.076 -437.829,370.934 C-392.751,409.572 -338.014,444.99 -283.277,473.968 C-231.76,499.727 -173.803,512.606 -115.847,519.045 C3.28674,528.705 128.86,486.847 228.674,406.352 C280.191,367.714 322.049,312.977 354.247,255.02 C386.445,197.064 402.544,135.887 405.764,68.2708 C405.764,-66.9617 331.708,-211.854 196.476,-289.129 C273.752,-269.81 341.368,-227.953 402.544,-166.776 C457.281,-105.599 502.359,-28.3238 518.458,58.6113 C537.777,142.327 531.337,238.921 502.359,325.856 C476.6,409.572 431.523,486.847 370.346,554.464 C309.17,622.08 238.334,680.037 154.618,718.674 C74.1228,760.532 -19.252,783.071 -112.627,792.73 C-209.221,799.17 -302.596,789.51 -392.751,757.312 C-479.686,728.334 -563.402,689.696 -637.457,634.959 C-711.513,580.222 -782.349,515.826 -840.306,444.99 C-895.043,370.934 -943.34,290.438 -978.758,203.503 C-1049.59,29.6329 -1072.13,-160.336 -1049.59,-343.866 C-1039.93,-437.241 -1010.96,-530.616 -978.758,-607.891 C-946.56,-691.607 -907.922,-768.882 -862.845,-846.158 C-769.47,-997.49 -637.457,-1135.94 -482.906,-1238.98 C-325.135,-1338.79 -151.265,-1403.19 32.2652,-1425.73 C209.355,-1448.26 392.885,-1432.17 563.535,-1390.31 C605.393,-1380.65 644.031,-1367.77 692.328,-1351.67 L718.087,-1345.23 L750.285,-1332.35 C769.604,-1325.91 792.143,-1316.25 811.462,-1309.81 C891.957,-1274.39 966.013,-1232.54 1040.07,-1184.24 C1184.96,-1090.86 1307.31,-968.511 1413.57,-836.499 C1622.86,-569.253 1745.21,-247.271 1774.19,77.9303 C1806.39,399.912 1745.21,731.554 1584.22,1002.02 C1658.27,696.136 1651.83,387.033 1577.78,106.909 Z" transform="scale(0.08544921875 0.08544921875) translate(2048.0 2048.0)"/><path fill="#000" fill-opacity="1" d="M-712.191,1339.9 C-430.521,1386.11 -141.888,1362.46 115.381,1269.15 C242.719,1225.39 362.066,1160.68 470.827,1080.79 C523.112,1041.65 573.799,998.318 618.696,952.392 C628.074,939.214 643.241,928.629 652.618,915.452 L670.378,899.077 C677.162,891.689 683.947,884.301 686.539,878.512 C706.892,856.347 729.838,828.394 744.401,803.637 C898.629,591.195 974.395,336.662 931.595,98.5382 C915.186,-20.0264 866.241,-135.785 797.938,-239.361 C762.987,-293.244 725.443,-341.338 682.109,-392.025 C640.374,-438.521 596.046,-479.226 544.933,-512.544 C446.9,-580.778 330.112,-622.657 214.531,-636.191 C154.645,-642.158 92.1659,-642.336 34.482,-629.94 C-24.8003,-621.736 -80.8859,-605.149 -137.966,-578.58 C-190.855,-553.611 -244.739,-518.66 -292.832,-481.116 C-336.735,-445.17 -371.651,-398.249 -400.778,-348.735 C-457.432,-245.515 -470.362,-115.762 -438.182,6.38983 C-424.188,68.2651 -391.83,127.938 -352.688,180.223 C-313.546,232.509 -265.026,271.616 -205.531,301.737 C-83.948,356.19 76.139,347.95 200.068,257.483 C151.583,319.18 86.7237,363.117 7.08851,393.486 C-68.3554,422.256 -157.581,427.477 -242.224,406.946 C-325.268,390.606 -409.521,345.922 -476.013,284.863 C-540.907,227.996 -592.232,156.352 -628.39,74.1243 C-664.549,-8.10392 -688.133,-95.1272 -689.163,-185.951 C-694.383,-275.176 -677.049,-368.202 -648.135,-456.042 C-615.03,-545.48 -568.748,-625.541 -503.498,-693.631 C-442.439,-760.124 -373.992,-819.831 -294.961,-864.372 C-215.929,-908.913 -129.51,-946.67 -42.4864,-970.254 C46.1352,-989.647 137.953,-1000.66 230.375,-997.496 C415.22,-991.172 595.09,-934.943 751.021,-840.779 C831.082,-794.497 903.364,-730.845 959.875,-670.781 C1022.18,-608.124 1076.09,-542.27 1127.42,-470.627 C1225.88,-325.741 1297.2,-151.304 1327.6,29.1359 C1353.82,211.174 1341.7,393.425 1288.07,567.506 C1237.02,735.798 1148.65,894.321 1042.3,1030.89 C1016.76,1064.64 989.627,1094.19 955.705,1131.13 L935.352,1153.29 L910.808,1177.06 C897.239,1191.83 879.48,1208.21 865.911,1222.98 C801.655,1281.09 734.203,1330.82 660.962,1377.95 C518.669,1470.62 359.399,1531.36 197.926,1573.73 C-126.617,1654.29 -465.367,1634.64 -769.415,1529.75 C-1071.86,1429.05 -1345.4,1240.51 -1523.74,986.865 C-1276.95,1180.8 -998.052,1295.29 -712.191,1339.9 Z M739.055,-1388.31 C457.385,-1434.53 168.752,-1410.87 -88.5171,-1317.57 C-215.855,-1273.81 -335.202,-1209.09 -443.963,-1129.21 C-496.249,-1090.07 -546.935,-1046.73 -591.833,-1000.81 C-601.21,-987.628 -616.377,-977.043 -625.754,-963.865 L-643.514,-947.491 C-650.298,-940.103 -657.083,-932.715 -659.676,-926.925 C-680.028,-904.761 -702.974,-876.807 -717.538,-852.05 C-871.765,-639.609 -947.531,-385.076 -904.731,-146.952 C-888.322,-28.3873 -839.377,87.3715 -771.074,190.947 C-736.123,244.831 -698.579,292.925 -655.245,343.611 C-613.51,390.107 -569.182,430.813 -518.07,464.13 C-420.036,532.364 -303.248,574.243 -187.667,587.777 C-127.781,593.745 -65.302,593.923 -7.61804,581.527 C51.6642,573.322 107.75,556.735 164.83,530.167 C217.719,505.197 271.602,470.246 319.696,432.702 C363.599,396.757 398.515,349.835 427.641,300.321 C484.296,197.102 497.226,67.3487 465.046,-54.8035 C451.052,-116.679 418.694,-176.352 379.552,-228.637 C340.41,-280.922 291.89,-320.03 232.395,-350.151 C110.812,-404.603 -49.275,-396.364 -173.204,-305.897 C-124.719,-367.594 -59.8598,-411.531 19.7754,-441.9 C96.8177,-466.479 184.445,-475.891 269.088,-455.36 C352.132,-439.02 436.385,-394.336 502.877,-333.277 C567.771,-276.41 619.096,-204.766 655.254,-122.538 C691.413,-40.3098 714.997,46.7134 716.026,137.537 C721.247,226.762 703.913,319.788 674.999,407.628 C641.894,497.066 595.612,577.127 530.362,645.217 C469.303,711.71 400.856,771.418 321.825,815.959 C242.793,860.5 156.374,898.256 69.3503,921.841 C-19.2712,941.234 -111.09,952.244 -203.512,949.082 C-388.356,942.758 -568.226,886.529 -724.157,792.366 C-804.218,746.083 -876.5,682.431 -933.011,622.367 C-995.312,559.71 -1049.23,493.856 -1100.56,422.213 C-1199.01,277.328 -1270.34,102.89 -1300.74,-77.5497 C-1326.95,-259.588 -1314.84,-441.839 -1261.2,-615.92 C-1210.16,-784.212 -1121.79,-942.735 -1015.44,-1079.31 C-989.9,-1113.05 -962.763,-1142.6 -928.841,-1179.54 L-912.68,-1200.11 L-888.135,-1223.87 C-874.567,-1238.65 -856.807,-1255.02 -843.238,-1269.8 C-778.983,-1327.91 -711.531,-1377.63 -638.289,-1424.77 C-495.997,-1517.44 -336.726,-1578.17 -175.254,-1620.55 C149.29,-1701.1 488.04,-1681.46 792.087,-1576.57 C1094.54,-1475.87 1368.07,-1287.33 1546.41,-1033.68 C1301.22,-1223.43 1020.73,-1342.1 739.055,-1388.31 Z" transform="scale(0.08544921875 0.08544921875) translate(2048.0 2048.0)"/><path fill="#000" fill-opacity="1" d="M976.98,-147.911 C895.291,-687.483 391.66,-1058.67 -147.911,-976.98 C-687.483,-895.291 -1058.67,-391.66 -976.98,147.911 C-895.291,687.483 -391.66,1058.67 147.911,976.98 C687.483,895.291 1058.67,391.66 976.98,-147.911 Z" transform="scale(0.08544921875 0.08544921875) translate(2048.0 2048.0)"/></g></svg>